# xmcd
#
# Track frame offsets: 
#        150
#        15388
#        30682
#        43454
#        59458
#        73303
#        86883
#        102831
#        123015
#        139367
#        155246
#        173145
#        193468
#
# Disc length: 2816 seconds
#
# Revision: 0
# Processed by: cddbd v1.5.1PL0 Copyright (c) Steve Scherf et al.
# Submitted via: ExactAudioCopy v0.95a5
#
DISCID=c50afe0d
DTITLE=B.B. King - Reflections
DYEAR=2003
DGENRE=Blues
TTITLE0=Exactly Like You
TTITLE1=On My Word Of Honor
TTITLE2=I Want A Little Girl
TTITLE3=I'll String Along With You
TTITLE4=I Need You So
TTITLE5=A Mother's Love
TTITLE6=I Love You (For Sentimental Reasons)
TTITLE7=Neighborhood Affair
TTITLE8=Tomorrow Night
TTITLE9=There I've Said It Again
TTITLE10=Always On My Mind
TTITLE11=Cross My Heart
TTITLE12=What A Wonderful World
EXTD=
EXTT0=
EXTT1=
EXTT2=
EXTT3=
EXTT4=
EXTT5=
EXTT6=
EXTT7=
EXTT8=
EXTT9=
EXTT10=
EXTT11=
EXTT12=
PLAYORDER=
